<svg width="1025" height="1024" viewBox="0 0 1025 1024" fill="none" xmlns="http://www.w3.org/2000/svg">
<rect x="0.551758" width="1024" height="1024" rx="222" fill="#3B3DFF"/>
<path d="M603.379 559.706C584.234 608.218 537.006 642.729 481.762 642.729C409.621 642.729 350.975 584.077 350.975 512.058C350.975 440.038 409.621 381.386 481.762 381.386C537.006 381.386 584.292 415.84 603.379 464.41H711.849C689.706 357.648 594.96 277.217 481.704 277.217C352.128 277.217 246.715 382.538 246.715 512C246.715 641.462 352.128 746.783 481.704 746.783C594.96 746.783 689.705 666.352 711.792 559.648H603.322L603.379 559.706Z" fill="white"/>
<path d="M772.11 746.783C805.391 746.783 832.371 719.827 832.371 686.575C832.371 653.323 805.391 626.367 772.11 626.367C738.829 626.367 711.849 653.323 711.849 686.575C711.849 719.827 738.829 746.783 772.11 746.783Z" fill="white"/>
</svg>
